<?xml version="1.0" standalone="no"?>
<!DOCTYPE svg PUBLIC "-//W3C//DTD SVG 20010904//EN"
 "http://www.w3.org/TR/2001/REC-SVG-20010904/DTD/svg10.dtd">
<svg version="1.0" xmlns="http://www.w3.org/2000/svg"
 width="28" height="28" viewBox="0 0 225.000000 225.000000"
 preserveAspectRatio="xMidYMid meet">
<metadata>
Created by potrace 1.15, written by Peter Selinger 2001-2017
</metadata>
<g transform="translate(0.000000,225.000000) scale(0.100000,-0.100000)"
fill="#000000" stroke="none">
<path d="M1304 2239 c-3 -6 -13 -8 -21 -5 -16 7 -93 -29 -93 -43 0 -5 18 -2
40 6 23 9 37 20 33 27 -3 6 -2 7 2 3 15 -14 15 -39 -1 -33 -8 3 -14 1 -14 -4
0 -6 5 -10 12 -10 6 0 9 -3 6 -6 -4 -3 -15 -1 -26 5 -16 8 -25 6 -46 -10 -14
-11 -23 -25 -20 -31 5 -7 2 -8 -5 -4 -9 6 -8 13 5 27 9 10 13 19 8 19 -12 0
-169 -242 -168 -257 1 -7 -2 -11 -6 -8 -16 10 -22 -16 -8 -33 11 -15 11 -16
-3 -4 -14 11 -22 3 -60 -55 -24 -38 -56 -85 -72 -105 l-29 -38 -392 0 -393 0
-24 -26 -24 -26 -3 -273 -3 -273 166 -169 165 -168 55 60 55 60 72 -72 c57
-55 76 -69 85 -60 64 60 559 560 561 567 8 23 37 7 98 -53 l64 -63 -268 -266
c-338 -338 -320 -320 -335 -312 -20 13 12 -26 82 -98 l65 -68 -54 -55 -55 -55
165 -165 165 -166 272 3 273 3 27 28 28 28 0 392 0 392 254 171 c187 125 262
181 280 209 l26 38 0 461 0 461 -27 29 c-16 18 -32 27 -42 23 -9 -4 -16 -2
-16 3 0 14 -847 13 -856 -1z m460 -262 c-5 -14 53 -40 69 -30 6 3 7 1 4 -4 -4
-6 6 -19 21 -29 36 -23 59 -50 85 -99 17 -32 22 -57 22 -125 0 -91 -15 -133
-69 -197 -14 -17 -23 -33 -20 -36 3 -3 -1 -5 -8 -4 -7 1 -35 -10 -63 -23 -73
-34 -172 -33 -240 3 -27 15 -57 32 -65 39 -62 51 -107 173 -95 251 16 97 63
167 144 215 34 20 61 26 123 30 43 3 81 9 84 13 8 14 14 11 8 -4z"/>
</g>
</svg>
